<svg version="1.1" xmlns="http://www.w3.org/2000/svg" style="display: block;" viewBox="0 0 2048 2048" width="1024" height="1024" preserveAspectRatio="none">
<path transform="translate(0,0)" fill="rgb(58,28,86)" d="M 713.596 512.37 C 719.643 511.246 734.641 511.832 741.379 511.832 L 791.782 511.889 L 957.819 511.95 L 1221.24 511.915 L 1294.28 511.963 C 1317.02 511.986 1339.9 511.257 1362.41 515.165 C 1399.85 521.884 1434.8 538.519 1463.62 563.338 C 1506.11 600.209 1532.08 652.549 1535.75 708.688 C 1538.45 745.845 1536.89 799.184 1536.89 837.651 L 1536.89 1066.5 L 1536.97 1242.91 C 1536.97 1324.78 1543.97 1400.5 1483.08 1465.62 C 1440.16 1511.51 1396.57 1531.72 1334.25 1535.95 C 1286.35 1537.7 1234.35 1536.95 1186.14 1537.01 L 929.373 1537.03 L 782.522 1536.81 C 749.577 1536.64 713.986 1538.26 682.11 1532.5 C 591.645 1516.17 518.575 1434.62 512.598 1342.78 C 511.52 1326.21 511.82 1309.5 511.844 1292.88 L 511.87 1219.09 L 511.834 982.542 L 511.803 799.558 C 511.79 764.308 509.721 721.375 514.871 687.395 C 526.953 607.681 591.965 538.06 669.937 518.784 C 685.195 515.012 698.112 513.568 713.596 512.37 z"/>
<path transform="translate(0,0)" fill="rgb(249,251,251)" d="M 1094.96 668.25 C 1115.89 666.735 1131.67 683.409 1146.4 696.403 C 1198.15 741.454 1238.57 798.055 1264.38 861.627 C 1307.65 967.001 1307.21 1085.26 1263.15 1190.31 C 1236.32 1252.52 1195.91 1307.94 1144.87 1352.49 C 1133.43 1362.53 1121.78 1373.66 1107.7 1379.31 C 1077 1385.34 1054.69 1352.2 1071.23 1328.17 C 1078.73 1317.26 1099.16 1302.85 1109.85 1292.8 C 1137.24 1267.04 1160.57 1237.28 1179.05 1204.54 C 1256.3 1068.04 1238.32 897.553 1134.31 780.164 C 1118.1 761.573 1101.21 745.74 1081.52 731.015 C 1074.72 725.93 1068.5 718.116 1066.45 709.733 C 1064.42 701.117 1065.93 692.046 1070.64 684.551 C 1076.7 674.735 1084.17 670.689 1094.96 668.25 z"/>
<path transform="translate(0,0)" fill="rgb(249,251,251)" d="M 957.318 739.192 C 967.453 739.837 973.603 742.003 982.135 747.502 C 1052.16 792.626 1106.11 867.824 1125.08 948.443 C 1145.49 1032.06 1131.39 1120.37 1085.96 1193.47 C 1060.2 1235.04 1025.98 1270.74 985.521 1298.23 C 975.029 1305.44 964.986 1312.74 952.519 1315.67 C 944.651 1316.12 938.52 1315.31 931.568 1311.29 C 923.15 1306.45 917.144 1298.31 915.003 1288.84 C 912.784 1279.33 915.033 1269.34 921.107 1261.7 C 928.298 1252.64 947.064 1242.5 957.468 1234.78 C 984.381 1214.81 1006.51 1191.01 1024.5 1162.83 C 1087.39 1063.8 1075.92 934.886 996.53 848.525 C 986.146 837.011 975.073 826.6 962.793 817.115 C 948.228 805.864 930.376 799.22 926.407 779.257 C 924.607 770.542 926.469 761.47 931.556 754.168 C 938.229 744.603 946.467 741.135 957.318 739.192 z"/>
<path transform="translate(0,0)" fill="rgb(249,251,251)" d="M 783.262 825.244 C 829.851 822.218 884.578 848.628 917.918 879.908 C 956.014 915.948 978.318 965.586 979.967 1018 C 981.427 1070.4 962.156 1121.26 926.34 1159.54 C 890.21 1197.77 841.677 1221.52 788.782 1223.07 C 780.496 1222.96 775.15 1222.23 767.641 1217.94 C 760.095 1213.6 754.605 1206.42 752.404 1198 C 749.874 1188.77 751.365 1178.91 756.509 1170.85 C 769.366 1150.85 788.951 1156.53 808.87 1152.04 C 843.244 1144.33 873.042 1123.06 891.491 1093.05 C 909.813 1063.03 915.421 1026.95 907.074 992.794 C 895.64 944.155 857.141 906.497 808.262 896.139 C 785.754 891.497 757.332 895.937 751.698 865.031 C 750.151 856.402 752.149 847.514 757.239 840.377 C 764.057 830.667 772.199 827.264 783.262 825.244 z"/>
</svg>